<svg xmlns="http://www.w3.org/2000/svg" width="38" height="34" viewBox="0 0 38 34"><g id="Group_3" data-name="Group 3" transform="translate(-2 -3)"><path id="Path_1" data-name="Path 1" d="M3,14a4,4,0,0,1,4-4H8.86a4,4,0,0,0,3.328-1.78l1.624-2.44A4,4,0,0,1,17.14,4h7.72a4,4,0,0,1,3.328,1.78l1.624,2.44A4,4,0,0,0,33.14,10H35a4,4,0,0,1,4,4V32a4,4,0,0,1-4,4H7a4,4,0,0,1-4-4Z" transform="translate(0 0)" fill="none" stroke="#f24e29" stroke-linecap="round" stroke-linejoin="round" stroke-width="2"/><path id="Path_2" data-name="Path 2" d="M22.4,16.7A6.7,6.7,0,1,1,15.7,10,6.7,6.7,0,0,1,22.4,16.7Z" transform="translate(5.3 5.6)" fill="none" stroke="#f24e29" stroke-linecap="round" stroke-linejoin="round" stroke-width="2"/></g></svg>